<svg xmlns="http://www.w3.org/2000/svg" width="1280" height="720" viewBox="0 0 1280 720"><rect width="1280" height="720" fill="#122f3a"/><circle cx="1205" cy="28" r="360" fill="#173f49"/><circle cx="1215" cy="65" r="285" fill="none" stroke="#21535b" stroke-width="2"/>
<rect x="70" y="67" width="46" height="46" rx="13" fill="#d5ef9b"/><path d="M83 82v-4h6m14 4v-4h-6m-14 21v4h6m14-4v4h-6M87 90h12" stroke="#143f3e" stroke-width="3" fill="none"/><text x="130" y="104" fill="white" font-family="Arial" font-size="42" font-weight="700">lotline</text>
<text x="70" y="252" fill="white" font-family="Arial" font-size="65" font-weight="700">Every unit</text><text x="70" y="330" fill="white" font-family="Arial" font-size="65" font-weight="700">needs an answer.</text>
<text x="73" y="401" fill="#acc1c9" font-family="Arial" font-size="26">From recall alert to reviewed evidence.</text><rect x="72" y="538" width="330" height="47" rx="23" fill="#d5ef9b"/><text x="98" y="569" fill="#143f3e" font-family="Arial" font-size="21" font-weight="700">PRODUCT WALKTHROUGH</text><text x="73" y="641" fill="#93adb7" font-family="Arial" font-size="20">Created by Shivam Gupta</text>
<text x="765" y="147" fill="#acc1c9" font-family="Arial" font-size="18" font-weight="700" letter-spacing="3">SAMPLE RESPONSE</text><rect x="761" y="177" width="185" height="174" rx="18" fill="#f5f9fa"/><text x="785" y="214" fill="#526c78" font-family="Arial" font-size="18">Affected</text><text x="783" y="287" fill="#a6443f" font-family="Arial" font-size="63" font-weight="700">64</text><text x="785" y="326" fill="#718691" font-family="Arial" font-size="17">Exact lot matches</text>
<rect x="966" y="177" width="235" height="174" rx="18" fill="#f5f9fa"/><text x="990" y="214" fill="#526c78" font-family="Arial" font-size="18">Need verification</text><text x="988" y="287" fill="#a6791f" font-family="Arial" font-size="63" font-weight="700">12</text><text x="990" y="326" fill="#718691" font-family="Arial" font-size="17">Missing lot numbers</text>
<path d="M982 369v37m-9-10 9 10 9-10" stroke="#d5ef9b" stroke-width="4" fill="none"/><rect x="761" y="428" width="440" height="168" rx="18" fill="#007e70"/><text x="790" y="468" fill="#d5ef9b" font-family="Arial" font-size="18" font-weight="700">VERIFIED • QUARANTINED • RETURNED</text><text x="787" y="544" fill="white" font-family="Arial" font-size="63" font-weight="700">76 / 76</text><text x="790" y="578" fill="#c9e8e1" font-family="Arial" font-size="20">Accounted for, with a response record</text></svg>